
<svg width="418" height="92" viewBox="0 0 418 92" fill="none" xmlns="http://www.w3.org/2000/svg">
<g id="Frame 1">
<path id="Vector" d="M26 88C25.5485 84.3881 25 80.9049 25 77C25 73.2239 25.5 69.7199 25.5 66C25.5 56.6322 26.5 47.0351 26.5 37.5278C26.5 33.861 27 30.0502 27 26.25C27 21.4145 27.3046 16.8964 32.8056 15.2222C36.3202 14.1526 39.2932 13 43 13H51.7222C57.3285 13 60.9843 18.4862 64 22.3889C67.4166 26.8103 66.5 31.9694 66.5 37.3889C66.5 40.3665 65.2763 45.478 62.5 47.1111C61.5435 47.6738 61.1922 48.7266 60.25 49.25C58.8169 50.0461 57.3286 50.6975 55.8889 51.5C52.9541 53.1358 49.9499 53.5515 46.8889 54.6111C42.2525 56.216 36.9546 55.9823 32.25 57.0278C30.4074 57.4373 28.1284 58 26.25 58H29.25C33.2965 58 37.7653 57.3375 41.25 59.75C45.3237 62.5703 48.846 66.6821 49.9722 71.75C51.1614 77.1013 53.5 82.4939 53.5 88M97.5 59.5C97.1084 56.3675 79.527 59.22 77 59.8889C69.9845 61.7459 67.5 66.4707 67.5 73.25C67.5 76.7407 70.1336 79.2023 70.5 82.5C70.833 85.4968 74.6258 86.2007 76.3889 87.6111C79.5789 90.1631 88.9115 88.6047 92.25 86.75C97.0478 84.0845 98 78.4889 98 73.25V65.5C98 63.7629 97.7343 57.7174 98 62.5C98.284 67.6129 99.5 73.0451 99.5 78.25C99.5 85.3084 105.816 84.9386 110.5 86.5M141 53H133C130.277 53 128.98 53.7413 126.857 54.9548L126.778 55C121.5 58.0161 120.5 62.0769 120.5 68C120.5 76.4547 121.804 86 131.75 86C136.364 86 140.283 80.1296 140.5 76C140.761 71.0327 141 66.2789 141 61.25C141 46.2099 142 31.0339 142 16M158 52C158 54.497 159 57.1602 159 59.6111V86.5M154.5 43.5C154.639 42.3895 157.611 42.6186 157.5 44.5C157.431 45.6754 150.389 43.8703 154.5 42.5M176.5 51C177.773 52.5916 176.863 55.8049 177.368 57.8085M177.368 57.8085C177.375 57.8356 177.382 57.8623 177.389 57.8889C177.737 59.1522 177.5 60.6874 177.5 62V62.8889M177.368 57.8085C177.25 59.5288 177.5 61.4078 177.5 62.8889M177.368 57.8085C177.438 56.7748 177.641 55.7984 178.111 55C178.919 53.6269 183.087 53.0706 184.5 53C188.653 52.7924 194.91 53.6928 195.5 59C195.768 61.4141 197.367 63.4685 197.5 66C197.613 68.1504 198.5 70.244 198.5 72.5C198.5 77.0992 199 81.4899 199 86M177.5 62.8889V69.6111C177.5 71.7695 177.571 73.8979 177.66 76.0177M177.5 62.8889C177.5 65.8657 177.571 71.0932 177.66 76.0177M177.66 76.0177C177.807 79.5037 178 82.9663 178 86.5C178 91.3953 177.807 84.116 177.66 76.0177Z" stroke="black" stroke-width="3" stroke-linecap="round"/>
</g>
</svg>
